<?xml version="1.0" encoding="UTF-8"?> <svg xmlns="http://www.w3.org/2000/svg" width="45" height="45" viewBox="0 0 30 33" fill="none"> <path d="M12.9265 15.4922C12.2039 15.4922 11.6345 16.1255 11.6345 16.8989C11.6345 17.6695 12.2172 18.3055 12.9265 18.3055C13.6479 18.3055 14.2172 17.6695 14.2172 16.8989C14.2319 16.1242 13.6479 15.4922 12.9265 15.4922ZM17.5505 15.4922C16.8279 15.4922 16.2585 16.1255 16.2585 16.8989C16.2585 17.6695 16.8412 18.3055 17.5505 18.3055C18.2719 18.3055 18.8412 17.6695 18.8412 16.8989C18.8399 16.1242 18.2719 15.4922 17.5505 15.4922Z" fill="black"></path> <path d="M23.7064 4.86426H6.73174C5.30108 4.86426 4.13574 6.02959 4.13574 7.47359V24.5989C4.13574 26.0429 5.30108 27.2083 6.73174 27.2083H21.0957L20.4224 24.8629L22.0451 26.3709L23.5771 27.7896L26.3024 30.1976V7.47359C26.3024 6.02959 25.1371 4.86426 23.7064 4.86426ZM18.8157 21.4069C18.8157 21.4069 18.3597 20.8629 17.9811 20.3789C19.6397 19.9096 20.2731 18.8723 20.2731 18.8723C19.7531 19.2136 19.2597 19.4563 18.8157 19.6216C18.1824 19.8856 17.5757 20.0629 16.9797 20.1656C15.7637 20.3923 14.6491 20.3296 13.6984 20.1523C12.9771 20.0123 12.3571 19.8096 11.8371 19.6056C11.5464 19.4923 11.2277 19.3549 10.9131 19.1776C10.8744 19.1496 10.8371 19.1389 10.7997 19.1136C10.7731 19.1003 10.7611 19.0883 10.7477 19.0736C10.5197 18.9483 10.3931 18.8603 10.3931 18.8603C10.3931 18.8603 11.0011 19.8736 12.6104 20.3549C12.2304 20.8349 11.7611 21.4069 11.7611 21.4069C8.96241 21.3176 7.89974 19.4816 7.89974 19.4816C7.89974 15.4029 9.72374 12.0976 9.72374 12.0976C11.5477 10.7283 13.2824 10.7669 13.2824 10.7669L13.4091 10.9189C11.1291 11.5789 10.0771 12.5789 10.0771 12.5789C10.0771 12.5789 10.3571 12.4269 10.8251 12.2123C12.1797 11.6176 13.2557 11.4523 13.6997 11.4136C13.7757 11.4016 13.8397 11.3883 13.9157 11.3883C14.6891 11.2869 15.5624 11.2616 16.4731 11.3629C17.6771 11.5029 18.9704 11.8576 20.2864 12.5789C20.2864 12.5789 19.2851 11.6296 17.1317 10.9709L17.3091 10.7683C17.3091 10.7683 19.0451 10.7296 20.8677 12.0989C20.8677 12.0989 22.6917 15.4043 22.6917 19.4829C22.6917 19.4816 21.6157 21.3176 18.8157 21.4069Z" fill="black"></path> </svg> 