<svg width="85" height="39" viewBox="0 0 85 39" fill="none" xmlns="http://www.w3.org/2000/svg">
<path d="M12.816 6.72C9.648 6.72 7.968 8.976 7.2 10.704V0H0V38.4H7.2V16.224C7.2 13.92 7.824 13.44 9.024 13.44C10.224 13.44 10.848 13.92 10.848 16.224V38.4H18.048V16.704C18.048 9.936 17.232 6.72 12.816 6.72Z" fill="white"/>
<path d="M19.0312 27.936C19.0312 35.664 22.2472 38.88 28.0553 38.88C33.8633 38.88 37.0793 35.664 37.0793 27.936V17.664C37.0793 9.936 33.8633 6.72 28.0553 6.72C22.2472 6.72 19.0312 9.936 19.0312 17.664V27.936ZM26.2313 27.936V17.664C26.2313 14.4 26.4713 13.44 28.0553 13.44C29.5912 13.44 29.8793 14.4 29.8793 17.664V27.936C29.8793 31.2 29.6392 32.16 28.0553 32.16C26.4713 32.16 26.2313 31.2 26.2313 27.936Z" fill="white"/>
<path d="M56.1105 33.792V0H48.9105V10.704C48.1425 8.976 46.4625 6.72 43.2945 6.72C38.8785 6.72 38.0625 9.936 38.0625 16.704V28.896C38.0625 35.664 38.8785 38.88 43.2945 38.88C46.4625 38.88 48.1425 36.624 48.9105 34.896C48.9105 35.76 49.1505 37.68 50.3505 38.4H56.5905C56.1105 36.864 56.1105 35.808 56.1105 33.792ZM48.9105 29.376C48.9105 31.68 48.2865 32.16 47.0865 32.16C45.8865 32.16 45.2625 31.68 45.2625 29.376V16.224C45.2625 13.92 45.8865 13.44 47.0865 13.44C48.2865 13.44 48.9105 13.92 48.9105 16.224V29.376Z" fill="white"/>
<path d="M57.0938 0V38.4H64.2937V0H57.0938Z" fill="white"/>
<path d="M83.778 33.792V16.704C83.778 9.936 81.09 6.72 74.802 6.72C68.514 6.72 65.73 9.936 65.73 16.704V17.664H72.93V16.704C72.93 14.4 73.41 13.44 74.802 13.44C76.098 13.44 76.578 13.92 76.578 15.696C76.53 20.784 65.25 19.728 65.25 30.768C65.25 36.432 68.082 38.88 71.298 38.88C74.034 38.88 75.474 37.632 76.578 34.896C76.578 35.76 76.818 37.68 78.018 38.4H84.258C83.778 36.864 83.778 35.808 83.778 33.792ZM76.578 30.96C76.098 31.536 75.426 32.16 74.466 32.16C73.266 32.16 72.45 31.344 72.45 29.472C72.45 26.544 75.09 25.584 76.578 23.424V30.96Z" fill="white"/>
</svg>
