<svg width="1076" height="50" viewBox="0 0 1076 50" fill="none" xmlns="http://www.w3.org/2000/svg">
<path d="M0.666667 25C0.666667 27.9455 3.05448 30.3333 6 30.3333C8.94552 30.3333 11.3333 27.9455 11.3333 25C11.3333 22.0545 8.94552 19.6667 6 19.6667C3.05448 19.6667 0.666667 22.0545 0.666667 25ZM1075.71 25.7071C1076.1 25.3166 1076.1 24.6834 1075.71 24.2929L1069.34 17.9289C1068.95 17.5384 1068.32 17.5384 1067.93 17.9289C1067.54 18.3195 1067.54 18.9526 1067.93 19.3431L1073.59 25L1067.93 30.6569C1067.54 31.0474 1067.54 31.6805 1067.93 32.0711C1068.32 32.4616 1068.95 32.4616 1069.34 32.0711L1075.71 25.7071ZM6 26H1075V24H6V26Z" fill="#E0D03B"/>
<rect x="163" width="19" height="50" rx="9.5" fill="#E0D03B"/>
<rect x="168" y="6.02441" width="9" height="37.9518" rx="4.5" fill="black"/>
<rect x="343" y="15" width="5" height="20" rx="2.5" fill="#E0D03B"/>
<rect opacity="0.83" x="523" y="15" width="5" height="20" rx="2.5" fill="#E0D03B"/>
<rect x="703" y="15" width="5" height="20" rx="2.5" fill="#E0D03B"/>
<rect x="883" y="15" width="5" height="20" rx="2.5" fill="#E0D03B"/>
</svg>
