<svg width="1090" height="50" viewBox="0 0 1090 50" fill="none" xmlns="http://www.w3.org/2000/svg">
<path d="M0 25C0 29.4183 3.58172 33 8 33C12.4183 33 16 29.4183 16 25C16 20.5817 12.4183 17 8 17C3.58172 17 0 20.5817 0 25ZM1089.06 26.0607C1089.65 25.4749 1089.65 24.5251 1089.06 23.9393L1079.51 14.3934C1078.93 13.8076 1077.98 13.8076 1077.39 14.3934C1076.81 14.9792 1076.81 15.9289 1077.39 16.5147L1085.88 25L1077.39 33.4853C1076.81 34.0711 1076.81 35.0208 1077.39 35.6066C1077.98 36.1924 1078.93 36.1924 1079.51 35.6066L1089.06 26.0607ZM8 26.5H1088V23.5H8V26.5Z" fill="#F46228"/>
<rect x="219" width="19" height="50" rx="9.5" fill="#F46228"/>
<rect x="224" y="6.02441" width="9" height="37.9518" rx="4.5" fill="black"/>
<rect x="386" y="15" width="5" height="20" rx="2.5" fill="#F46228"/>
<rect x="548" y="15" width="5" height="20" rx="2.5" fill="#F46228"/>
<rect x="710" y="15" width="5" height="20" rx="2.5" fill="#F46228"/>
<rect x="872" y="15" width="5" height="20" rx="2.5" fill="#F46228"/>
</svg>
