<svg width="1173" height="1164" viewBox="0 0 1173 1164" fill="none" xmlns="http://www.w3.org/2000/svg">
<path opacity="0.2" d="M590.028 558.394L591.004 558.542L739.143 92.2495L597.747 560.61L598.636 561.04L878.183 159L604.467 564.994L605.19 565.667L991.258 263.59L609.591 571.156L610.083 572.012L1068.35 396.694L612.662 578.548L612.881 579.511L1102.64 546.485L613.409 586.513L613.335 587.498L1091.13 699.688L611.764 594.343L611.405 595.263L1034.81 842.729L607.875 601.343L607.261 602.116L938.657 962.92L602.087 606.891L601.272 607.448L811.178 1049.56L594.914 610.494L593.971 610.786L663.686 1094.92L586.994 611.832H586.006L509.314 1094.92L579.029 610.786L578.086 610.494L361.823 1049.56L571.728 607.448L570.913 606.891L234.344 962.919L565.739 602.116L565.125 601.343L138.192 842.73L561.595 595.263L561.236 594.343L81.8736 699.688L559.665 587.498L559.591 586.513L70.3563 546.485L560.119 579.511L560.338 578.548L104.652 396.693L562.917 572.012L563.409 571.156L181.743 263.591L567.81 565.667L568.533 564.994L294.818 159.001L574.364 561.04L575.253 560.61L433.858 92.2528L581.996 558.542L582.972 558.394L586.5 69.3191L590.028 558.394Z" stroke="white"/>
</svg>
